<svg width="796" height="221" viewBox="0 0 796 221" fill="none" xmlns="http://www.w3.org/2000/svg">
<path d="M187.086 20.1897C163.315 31.7457 144.269 52.5534 128.362 81.7099C113.124 109.641 108.362 160.69 108.362 160.69C108.514 168.618 113.068 183.978 122.883 196.311C161.741 245.135 239.551 -5.31605 187.086 20.1897Z" fill="url(#paint0_radial_3963_829)"/>
<path d="M76.046 58.5003C57.9009 42.023 46.6315 33.1115 18.648 33.112C-38.2622 33.1132 51.7416 190.523 67.8022 200.203C82.1942 208.878 93.5933 185.032 103.362 164.209C109.833 150.417 107.611 87.1643 76.046 58.5003Z" fill="url(#paint1_radial_3963_829)"/>
<path d="M321.864 175L283.889 93.625H293.689L327.289 167.475H321.864L355.639 93.625H365.264L327.114 175H321.864ZM438.805 176.75C430.755 176.75 423.464 174.883 416.93 171.15C410.514 167.417 405.439 162.342 401.705 155.925C397.972 149.508 396.105 142.275 396.105 134.225C396.105 126.175 397.914 119 401.53 112.7C405.147 106.283 410.105 101.208 416.405 97.475C422.822 93.7417 429.939 91.875 437.755 91.875C445.222 91.875 451.755 93.5667 457.355 96.95C463.072 100.217 467.505 104.767 470.655 110.6C473.922 116.433 475.555 123.142 475.555 130.725C475.555 131.425 475.497 132.358 475.38 133.525C475.264 134.575 475.089 135.917 474.855 137.55H402.405V129.85H469.78L466.805 132.3C467.039 125.883 465.989 120.283 463.655 115.5C461.322 110.6 457.939 106.808 453.505 104.125C449.072 101.442 443.764 100.1 437.58 100.1C431.164 100.1 425.505 101.558 420.605 104.475C415.705 107.275 411.855 111.183 409.055 116.2C406.372 121.217 405.03 127.05 405.03 133.7C405.03 140.7 406.43 146.825 409.23 152.075C412.147 157.208 416.172 161.233 421.305 164.15C426.439 166.95 432.447 168.35 439.33 168.35C444.58 168.35 449.422 167.417 453.855 165.55C458.405 163.567 462.197 160.65 465.23 156.8L471.18 162.575C467.447 167.008 462.722 170.508 457.005 173.075C451.405 175.525 445.339 176.75 438.805 176.75ZM518.612 175V93.625H527.537V175H518.612ZM527.537 126.35L523.162 124.775C523.162 114.392 525.787 106.342 531.037 100.625C536.287 94.7917 543.17 91.875 551.687 91.875C555.654 91.875 559.329 92.575 562.712 93.975C566.212 95.375 569.42 97.65 572.337 100.8L566.387 107.1C564.17 104.65 561.779 102.9 559.212 101.85C556.645 100.8 553.612 100.275 550.112 100.275C543.462 100.275 538.037 102.55 533.837 107.1C529.637 111.533 527.537 117.95 527.537 126.35ZM662.746 175L617.421 133.175L661.871 93.625H673.246L625.996 135.45L626.171 130.55L674.821 175H662.746ZM609.721 175V52.15H618.646V175H609.721ZM714.844 175V52.15H723.769V175H714.844ZM772.975 175V93.625H781.725V175H772.975ZM777.35 74.725C775.366 74.725 773.675 74.025 772.275 72.625C770.991 71.1083 770.35 69.3583 770.35 67.375C770.35 65.3917 770.991 63.7583 772.275 62.475C773.675 61.075 775.366 60.375 777.35 60.375C779.333 60.375 781.025 61.075 782.425 62.475C783.825 63.7583 784.525 65.3917 784.525 67.375C784.525 69.3583 783.825 71.1083 782.425 72.625C781.025 74.025 779.333 74.725 777.35 74.725Z" fill="black"/>
<defs>
<radialGradient id="paint0_radial_3963_829" cx="0" cy="0" r="1" gradientUnits="userSpaceOnUse" gradientTransform="translate(10 202.5) rotate(-43.3375) scale(268.106 235.584)">
<stop stop-color="#907AFF"/>
<stop offset="0.360577" stop-color="#E29ED5"/>
<stop offset="0.697115" stop-color="#FCC997"/>
<stop offset="1" stop-color="#FEE9A3"/>
</radialGradient>
<radialGradient id="paint1_radial_3963_829" cx="0" cy="0" r="1" gradientUnits="userSpaceOnUse" gradientTransform="translate(10 202.5) rotate(-43.3375) scale(268.106 235.584)">
<stop stop-color="#907AFF"/>
<stop offset="0.360577" stop-color="#E29ED5"/>
<stop offset="0.697115" stop-color="#FCC997"/>
<stop offset="1" stop-color="#FEE9A3"/>
</radialGradient>
</defs>
</svg>
