<?xml version="1.0" encoding="UTF-8"?>
<svg xmlns="http://www.w3.org/2000/svg" viewBox="0 0 1080 1080" width="1080" height="1080" role="img" aria-label="Den hemsökta dagboken — Instagram (SV)">
  <defs>
    <linearGradient id="bgGrad" x1="0%" y1="0%" x2="100%" y2="100%">
      <stop offset="0%" stop-color="#907AFF"/>
      <stop offset="55%" stop-color="#E29ED5"/>
      <stop offset="100%" stop-color="#FCC997"/>
    </linearGradient>
    <linearGradient id="avatarGrad" x1="0%" y1="0%" x2="100%" y2="100%">
      <stop offset="0%" stop-color="#907AFF"/>
      <stop offset="100%" stop-color="#E29ED5"/>
    </linearGradient>
    <linearGradient id="videoGrad" x1="0%" y1="0%" x2="0%" y2="100%">
      <stop offset="0%" stop-color="#241A3D"/>
      <stop offset="55%" stop-color="#140E26"/>
      <stop offset="100%" stop-color="#0E0B1A"/>
    </linearGradient>
    <radialGradient id="videoGlow" cx="50%" cy="34%" r="55%">
      <stop offset="0%" stop-color="#907AFF" stop-opacity="0.55"/>
      <stop offset="60%" stop-color="#E29ED5" stop-opacity="0.12"/>
      <stop offset="100%" stop-color="#E29ED5" stop-opacity="0"/>
    </radialGradient>
    <linearGradient id="scrim" x1="0%" y1="0%" x2="0%" y2="100%">
      <stop offset="0%" stop-color="#000000" stop-opacity="0"/>
      <stop offset="100%" stop-color="#000000" stop-opacity="0.72"/>
    </linearGradient>
    <style><![CDATA[
      .display { font-family: "Montserrat Alternates", "Inter", ui-sans-serif, system-ui, sans-serif; font-weight: 700; letter-spacing: -0.02em; }
      .body { font-family: "Inter", ui-sans-serif, system-ui, sans-serif; font-weight: 500; }
      .bold { font-family: "Inter", ui-sans-serif, system-ui, sans-serif; font-weight: 700; }
      .serif { font-family: "Georgia", "Times New Roman", serif; font-style: italic; }
    ]]></style>
  </defs>
  
  <rect width="1080" height="1080" fill="#FFFFFF"/>

  <!-- Header bar -->
  <circle cx="72" cy="66" r="40" fill="url(#avatarGrad)"/>
  <text class="display" x="72" y="80.4" text-anchor="middle" fill="#FDF8EE" font-size="42">V</text>
  <text class="bold" x="132" y="62" fill="#0E0B1A" font-size="34">@verkli.books</text>
  <text class="body" x="132" y="100" fill="#8A8A8A" font-size="26">Sponsrad · Verkli</text>
  <circle cx="1010" cy="50" r="5" fill="#0E0B1A"/>
  <circle cx="1010" cy="66" r="5" fill="#0E0B1A"/>
  <circle cx="1010" cy="82" r="5" fill="#0E0B1A"/>

  <!-- Creative: brand gradient with pull-quote -->
  <rect x="0" y="132" width="1080" height="716" fill="url(#bgGrad)"/>
  <rect x="0" y="132" width="1080" height="716" fill="#000000" fill-opacity="0.18"/>
  <text class="body" x="540" y="228" text-anchor="middle" fill="#FDF8EE" font-size="26" letter-spacing="0.26em" style="text-transform:uppercase;">Verkli Audiobook</text>
  <text class="serif" x="540" y="470" text-anchor="middle" fill="#FDF8EE" font-size="52"><tspan x="540" dy="0">”Jag svär att jag stängde den.</tspan><tspan x="540" dy="66">På morgonen låg den öppen</tspan><tspan x="540" dy="66">igen.”</tspan></text>
  <text class="display" x="540" y="738" text-anchor="middle" fill="#FDF8EE" font-size="48">Den hemsökta dagboken</text>
  <text class="body" x="540" y="788" text-anchor="middle" fill="#FDF8EE" fill-opacity="0.82" font-size="30">av Astrid Halvorsen</text>

  <!-- Action row -->
  <g transform="translate(56,892) scale(2.3333333333333335)"><path d="M12 21.35l-1.45-1.32C5.4 15.36 2 12.28 2 8.5 2 5.42 4.42 3 7.5 3c1.74 0 3.41.81 4.5 2.09C13.09 3.81 14.76 3 16.5 3 19.58 3 22 5.42 22 8.5c0 3.78-3.4 6.86-8.55 11.54L12 21.35z" fill="#0E0B1A"/></g>
  <g transform="translate(132,892) scale(2.3333333333333335)"><path d="M20 2H4c-1.1 0-2 .9-2 2v18l4-4h14c1.1 0 2-.9 2-2V4c0-1.1-.9-2-2-2z" fill="#0E0B1A"/></g>
  <g transform="translate(208,892) scale(2.3333333333333335)"><path d="M2.01 21L23 12 2.01 3 2 10l15 2-15 2z" fill="#0E0B1A"/></g>
  <g transform="translate(996,892) scale(2.3333333333333335)"><path d="M17 3H7c-1.1 0-2 .9-2 2v16l7-3 7 3V5c0-1.1-.9-2-2-2z" fill="#0E0B1A"/></g>

  <!-- Likes + caption -->
  <text class="bold" x="56" y="1004" fill="#0E0B1A" font-size="32">5.7K gilla-markeringar</text>
  <text class="bold" x="56" y="1050" fill="#0E0B1A" font-size="30">@verkli.books</text>
  <text class="body" x="56" y="1092" fill="#0E0B1A" font-size="30"><tspan x="56" dy="0">Vissa sidor viskar tillbaka. ”Den hemsökta dagboken” av Astrid</tspan><tspan x="56" dy="40">Halvorsen…</tspan></text>

</svg>
